<svg xmlns="http://www.w3.org/2000/svg" width="1200" height="520" viewBox="0 0 1200 520"><defs><marker id="arrow" markerWidth="8" markerHeight="8" refX="7" refY="4" orient="auto"><path d="M0,0 L8,4 L0,8 Z" fill="#3d6650"/></marker></defs><rect width="1200" height="520" fill="#f7faf3"/><g font-family="Noto Sans CJK SC,Microsoft YaHei,sans-serif" fill="#181d18"><text x="40" y="50" font-size="28" font-weight="bold">Buffer：端侧捕获 · 手机编排 · 云端推理</text><rect x="35" y="110" width="295" height="200" rx="18" fill="#e3eee3" stroke="#a1b7a7"/><text x="55" y="146" font-size="24" font-weight="bold">openvela 节点</text><text x="55" y="182" font-size="20">LVGL 屏幕录音与卡片</text><text x="55" y="212" font-size="20">音频队列 / 卡片缓存</text><text x="55" y="242" font-size="20">配对与同步</text><rect x="430" y="110" width="340" height="260" rx="18" fill="#e3eee3" stroke="#a1b7a7"/><text x="450" y="146" font-size="24" font-weight="bold">Android 手机</text><text x="450" y="182" font-size="20">原始事件 / SQLite 卡片</text><text x="450" y="212" font-size="20">运行时 Skill 编排</text><text x="450" y="242" font-size="20">本地搜索 / 关联 / 校验</text><text x="450" y="272" font-size="20">Material 3 内容渲染</text><rect x="870" y="110" width="295" height="200" rx="18" fill="#e3eee3" stroke="#a1b7a7"/><text x="890" y="146" font-size="24" font-weight="bold">MiMo 服务</text><text x="890" y="182" font-size="20">MiMo 2.5 ASR 转写</text><text x="890" y="212" font-size="20">MiMo 2.5 分类与整理</text><text x="890" y="242" font-size="20">回答 / 七日总结</text><rect x="430" y="405" width="340" height="80" rx="18" fill="#e3eee3" stroke="#a1b7a7"/><text x="450" y="441" font-size="24" font-weight="bold">用户确认与系统授权</text><path d="M330,200 L425,200" stroke="#3d6650" stroke-width="3" marker-end="url(#arrow)"/><text x="377.5" y="188.0" text-anchor="middle" font-size="17">音频 / 卡片</text><path d="M770,200 L865,200" stroke="#3d6650" stroke-width="3" marker-end="url(#arrow)"/><text x="817.5" y="188.0" text-anchor="middle" font-size="17">API</text><path d="M600,370 L600,400" stroke="#3d6650" stroke-width="3" marker-end="url(#arrow)"/><text x="600.0" y="373.0" text-anchor="middle" font-size="17">日历 / 健康</text></g></svg>